<?xml version="1.0" encoding="UTF-8" standalone="no"?>
<!-- Created with Inkscape (http://www.inkscape.org/) -->

<svg
   width="500"
   height="500"
   viewBox="0 0 132.29167 132.29167"
   xmlns="http://www.w3.org/2000/svg"
  >
  <path
     id="path9"
     style="fill:#ffffff;fill-opacity:0.1;stroke-width:0.271613"
     d="M 66.157202,0.13384196 A 66.023674,66.015572 0 0 0 0.69504801,58.302901 H 35.679476 A 31.750002,31.844498 0 0 1 66.240401,34.584969 31.750002,31.844498 0 0 1 96.919149,58.302901 H 131.69325 A 66.023674,66.015572 0 0 0 66.157202,0.13384196 Z m 0.0832,47.39659004 A 18.331844,18.520832 0 0 0 47.908704,66.051265 18.331844,18.520832 0 0 0 66.240401,84.572099 18.331844,18.520832 0 0 0 84.572099,66.051265 18.331844,18.520832 0 0 0 66.240402,47.530432 Z M 0.70176595,74.083333 A 66.023674,66.015572 0 0 0 66.157202,132.16454 66.023674,66.015572 0 0 0 131.61316,74.083333 H 96.94447 A 31.750002,31.844498 0 0 1 66.240401,98.273588 31.750002,31.844498 0 0 1 35.536332,74.083333 Z"
     />
</svg>
